<?xml version="1.0" encoding="utf-8"?>
<!-- Generator: Adobe Illustrator 25.4.1, SVG Export Plug-In . SVG Version: 6.00 Build 0)  -->
<svg version="1.1" id="Capa_1" xmlns="http://www.w3.org/2000/svg" xmlns:xlink="http://www.w3.org/1999/xlink" x="0px" y="0px"
	 viewBox="0 0 800 800" style="enable-background:new 0 0 800 800;" xml:space="preserve">
<style type="text/css">
	.st0{fill-rule:evenodd;clip-rule:evenodd;fill:#CE0E2D;}
	.st1{fill:#CE0E2D;}
</style>
<path class="st0" d="M123.3,123.3c9.8-9.8,25.6-9.8,35.4,0L416,380.6V262.9c0-13.8,11.2-25,25-25s25,11.2,25,25V441
	c0,13.8-11.2,25-25,25H262.9c-13.8,0-25-11.2-25-25s11.2-25,25-25h117.8L123.3,158.7C113.5,148.9,113.5,133.1,123.3,123.3z"/>
<path class="st1" d="M264.3,158.3L366,260c1.5-40.1,34.5-72.1,74.9-72.1c41.4,0,75,33.6,75,75V441c0,41.4-33.6,75-75,75h-178
	c-41.4,0-75-33.6-75-75c0-40.5,32-73.4,72.1-74.9L158.3,264.3c-32.1,51.2-50.6,111.8-50.6,176.7c0,184.1,149.2,333.3,333.3,333.3
	S774.3,625.1,774.3,441S625.1,107.7,441,107.7C376.1,107.7,315.5,126.2,264.3,158.3z"/>
</svg>
