<?xml version="1.0" encoding="utf-8"?>
<!-- Generator: Adobe Illustrator 25.4.1, SVG Export Plug-In . SVG Version: 6.00 Build 0)  -->
<svg version="1.1" id="Capa_1" xmlns="http://www.w3.org/2000/svg" xmlns:xlink="http://www.w3.org/1999/xlink" x="0px" y="0px"
	 viewBox="0 0 800 800" style="enable-background:new 0 0 800 800;" xml:space="preserve">
<style type="text/css">
	.st0{fill-rule:evenodd;clip-rule:evenodd;fill:#CE0E2D;}
	.st1{fill:#CE0E2D;}
</style>
<path class="st0" d="M82.3,717.7c-9.8-9.8-9.8-25.6,0-35.4L339.6,425H221.9c-13.8,0-25-11.2-25-25s11.2-25,25-25H400
	c13.8,0,25,11.2,25,25v178.1c0,13.8-11.2,25-25,25c-13.8,0-25-11.2-25-25V460.4L117.7,717.7C107.9,727.4,92.1,727.4,82.3,717.7z"/>
<path class="st1" d="M117.3,576.7L219,474.9c-40.1-1.5-72.1-34.5-72.1-74.9c0-41.4,33.6-75,75-75H400c41.4,0,75,33.6,75,75v178.1
	c0,41.4-33.6,75-75,75c-40.5,0-73.4-32-74.9-72.1L223.3,682.7c51.2,32.1,111.8,50.6,176.7,50.6c184.1,0,333.3-149.2,333.3-333.3
	c0-184.1-149.2-333.3-333.3-333.3C215.9,66.7,66.7,215.9,66.7,400C66.7,464.9,85.2,525.4,117.3,576.7z"/>
</svg>
